<svg xmlns="http://www.w3.org/2000/svg" xmlns:xlink="http://www.w3.org/1999/xlink" width="600" zoomAndPan="magnify" viewBox="0 0 224.87999 30.000001" height="70" preserveAspectRatio="xMidYMid meet" version="1.0"><defs><g/><clipPath id="e3a75d82de"><path d="M 152 6.660156 L 157 6.660156 L 157 20 L 152 20 Z M 152 6.660156 " clip-rule="nonzero"/></clipPath><clipPath id="feb3a4a90e"><path d="M 156 6.660156 L 161 6.660156 L 161 20 L 156 20 Z M 156 6.660156 " clip-rule="nonzero"/></clipPath><clipPath id="0d8d5eb19e"><path d="M 155 24 L 157 24 L 157 27.707031 L 155 27.707031 Z M 155 24 " clip-rule="nonzero"/></clipPath><clipPath id="526ab9d0e9"><path d="M 156 24 L 158 24 L 158 27.707031 L 156 27.707031 Z M 156 24 " clip-rule="nonzero"/></clipPath><clipPath id="03ffe42b77"><path d="M 151.746094 18 L 155 18 L 155 24 L 151.746094 24 Z M 151.746094 18 " clip-rule="nonzero"/></clipPath><clipPath id="97f9d17f40"><path d="M 158 18 L 161.183594 18 L 161.183594 24 L 158 24 Z M 158 18 " clip-rule="nonzero"/></clipPath></defs><g fill="#ffffff" fill-opacity="1"><g transform="translate(18.690606, 24.375398)"><g><path d="M 20.296875 0 L 16.5 0 L 16.46875 -11 L 12.40625 -1.6875 L 9.609375 -1.6875 L 5.53125 -11 L 5.53125 0 L 1.6875 0 L 1.6875 -16.953125 L 6.40625 -16.953125 L 11 -6.875 L 15.59375 -16.953125 L 20.296875 -16.953125 Z M 20.296875 0 "/></g></g></g><g fill="#ffffff" fill-opacity="1"><g transform="translate(40.703989, 24.375398)"><g><path d="M 10.421875 -5.46875 L 10.421875 0 L 6.140625 0 L 6.140625 -5.34375 L -0.125 -16.9375 L 4.1875 -16.9375 L 8.265625 -9.546875 L 12.265625 -16.9375 L 16.5625 -16.9375 Z M 10.421875 -5.46875 "/></g></g></g><g fill="#ffffff" fill-opacity="1"><g transform="translate(57.15355, 24.375398)"><g><path d="M 14.953125 -13.546875 L 6 -13.546875 L 6 -10.1875 L 14.078125 -10.1875 L 14.078125 -6.796875 L 6 -6.796875 L 6 -3.390625 L 15.21875 -3.390625 L 15.21875 0 L 1.6875 0 L 1.6875 -16.9375 L 14.953125 -16.9375 Z M 14.953125 -13.546875 "/></g></g></g><g fill="#ffffff" fill-opacity="1"><g transform="translate(73.457968, 24.375398)"><g><path d="M 11 0 L 6.5625 0 L -0.03125 -16.9375 L 4.578125 -16.9375 L 8.90625 -4.46875 L 13.234375 -16.9375 L 17.65625 -16.9375 Z M 11 0 "/></g></g></g><g fill="#ffffff" fill-opacity="1"><g transform="translate(91.092865, 24.375398)"><g><path d="M 20.296875 0 L 16.5 0 L 16.46875 -11 L 12.40625 -1.6875 L 9.609375 -1.6875 L 5.53125 -11 L 5.53125 0 L 1.6875 0 L 1.6875 -16.953125 L 6.40625 -16.953125 L 11 -6.875 L 15.59375 -16.953125 L 20.296875 -16.953125 Z M 20.296875 0 "/></g></g></g><g fill="#ffffff" fill-opacity="1"><g transform="translate(113.106245, 24.375398)"><g/></g></g><g fill="#97e900" fill-opacity="1"><g transform="translate(118.718523, 24.375398)"><g><path d="M 8.203125 -17.125 C 10.734375 -17.125 12.957031 -16.492188 14.875 -15.234375 L 13.25 -11.875 C 12.363281 -12.394531 11.410156 -12.816406 10.390625 -13.140625 C 9.378906 -13.472656 8.53125 -13.640625 7.84375 -13.640625 C 6.59375 -13.640625 5.96875 -13.226562 5.96875 -12.40625 C 5.96875 -11.875 6.273438 -11.445312 6.890625 -11.125 C 7.503906 -10.800781 8.25 -10.519531 9.125 -10.28125 C 10.007812 -10.050781 10.890625 -9.769531 11.765625 -9.4375 C 12.640625 -9.113281 13.382812 -8.578125 14 -7.828125 C 14.613281 -7.085938 14.921875 -6.15625 14.921875 -5.03125 C 14.921875 -3.40625 14.285156 -2.132812 13.015625 -1.21875 C 11.742188 -0.3125 10.125 0.140625 8.15625 0.140625 C 6.75 0.140625 5.359375 -0.0976562 3.984375 -0.578125 C 2.617188 -1.066406 1.425781 -1.726562 0.40625 -2.5625 L 2.078125 -5.875 C 2.929688 -5.132812 3.9375 -4.523438 5.09375 -4.046875 C 6.257812 -3.578125 7.296875 -3.34375 8.203125 -3.34375 C 8.890625 -3.34375 9.425781 -3.46875 9.8125 -3.71875 C 10.207031 -3.96875 10.40625 -4.332031 10.40625 -4.8125 C 10.40625 -5.28125 10.179688 -5.671875 9.734375 -5.984375 C 9.296875 -6.296875 8.742188 -6.53125 8.078125 -6.6875 C 7.421875 -6.84375 6.703125 -7.046875 5.921875 -7.296875 C 5.148438 -7.554688 4.429688 -7.835938 3.765625 -8.140625 C 3.109375 -8.453125 2.554688 -8.941406 2.109375 -9.609375 C 1.671875 -10.285156 1.453125 -11.085938 1.453125 -12.015625 C 1.453125 -13.566406 2.066406 -14.804688 3.296875 -15.734375 C 4.535156 -16.660156 6.171875 -17.125 8.203125 -17.125 Z M 8.203125 -17.125 "/></g></g></g><g fill="#97e900" fill-opacity="1"><g transform="translate(134.297225, 24.375398)"><g><path d="M 14.640625 -13.46875 L 9.53125 -13.46875 L 9.53125 0 L 5.21875 0 L 5.21875 -13.46875 L 0.171875 -13.46875 L 0.171875 -16.953125 L 14.640625 -16.953125 Z M 14.640625 -13.46875 "/></g></g></g><g fill="#97e900" fill-opacity="1"><g transform="translate(149.077865, 24.375398)"><g/></g></g><g fill="#97e900" fill-opacity="1"><g transform="translate(154.690068, 24.375398)"><g/></g></g><g fill="#97e900" fill-opacity="1"><g transform="translate(160.302272, 24.375398)"><g/></g></g><g fill="#97e900" fill-opacity="1"><g transform="translate(165.914555, 24.375398)"><g><path d="M 11.90625 0 L 9.390625 -4.765625 L 6 -4.765625 L 6 0 L 1.6875 0 L 1.6875 -16.9375 L 9.265625 -16.9375 C 11.503906 -16.9375 13.234375 -16.421875 14.453125 -15.390625 C 15.679688 -14.367188 16.296875 -12.914062 16.296875 -11.03125 C 16.296875 -8.414062 15.273438 -6.601562 13.234375 -5.59375 L 16.78125 0 Z M 6 -8.15625 L 9.265625 -8.15625 C 10.203125 -8.15625 10.925781 -8.382812 11.4375 -8.84375 C 11.957031 -9.3125 12.21875 -9.992188 12.21875 -10.890625 C 12.21875 -11.753906 11.957031 -12.410156 11.4375 -12.859375 C 10.925781 -13.316406 10.203125 -13.546875 9.265625 -13.546875 L 6 -13.546875 Z M 6 -8.15625 "/></g></g></g><g fill="#97e900" fill-opacity="1"><g transform="translate(183.428499, 24.375398)"><g><path d="M 14.640625 -13.46875 L 9.53125 -13.46875 L 9.53125 0 L 5.21875 0 L 5.21875 -13.46875 L 0.171875 -13.46875 L 0.171875 -16.953125 L 14.640625 -16.953125 Z M 14.640625 -13.46875 "/></g></g></g><g clip-path="url(#e3a75d82de)"><path fill="#065fff" d="M 156.589844 6.726562 L 152.765625 16.382812 L 154.679688 19.757812 L 156.589844 19.757812 Z M 156.589844 6.726562 " fill-opacity="1" fill-rule="nonzero"/></g><g clip-path="url(#feb3a4a90e)"><path fill="#87e200" d="M 156.589844 6.726562 L 160.410156 16.382812 L 158.5 19.757812 L 156.589844 19.757812 Z M 156.589844 6.726562 " fill-opacity="1" fill-rule="nonzero"/></g><path fill="#87e200" d="M 152.765625 16.382812 L 156.589844 18.589844 L 156.589844 16.382812 Z M 152.765625 16.382812 " fill-opacity="1" fill-rule="nonzero"/><path fill="#065fff" d="M 160.410156 16.382812 L 156.589844 18.589844 L 156.589844 16.382812 Z M 160.410156 16.382812 " fill-opacity="1" fill-rule="nonzero"/><path fill="#065fff" d="M 152.765625 16.382812 L 156.589844 14.171875 L 156.589844 16.382812 Z M 152.765625 16.382812 " fill-opacity="1" fill-rule="nonzero"/><path fill="#065fff" d="M 160.410156 16.382812 L 156.589844 14.171875 L 156.589844 16.382812 Z M 160.410156 16.382812 " fill-opacity="1" fill-rule="nonzero"/><path fill="#065fff" d="M 156.589844 20.710938 L 155.363281 24.152344 L 156.589844 24.152344 Z M 156.589844 20.710938 " fill-opacity="1" fill-rule="nonzero"/><g clip-path="url(#0d8d5eb19e)"><path fill="#87e200" d="M 156.589844 27.597656 L 155.363281 24.152344 L 156.589844 24.152344 Z M 156.589844 27.597656 " fill-opacity="1" fill-rule="nonzero"/></g><path fill="#065fff" d="M 156.589844 20.710938 L 157.8125 24.152344 L 156.589844 24.152344 Z M 156.589844 20.710938 " fill-opacity="1" fill-rule="nonzero"/><g clip-path="url(#526ab9d0e9)"><path fill="#065fff" d="M 156.589844 27.597656 L 157.8125 24.152344 L 156.589844 24.152344 Z M 156.589844 27.597656 " fill-opacity="1" fill-rule="nonzero"/></g><g clip-path="url(#03ffe42b77)"><path fill="#87e200" d="M 154.320312 21.09375 L 152.746094 23.835938 L 151.753906 19.78125 L 152.765625 18.347656 Z M 154.320312 21.09375 " fill-opacity="1" fill-rule="nonzero"/></g><g clip-path="url(#97f9d17f40)"><path fill="#87e200" d="M 158.855469 21.09375 L 160.433594 23.835938 L 161.421875 19.78125 L 160.410156 18.347656 Z M 158.855469 21.09375 " fill-opacity="1" fill-rule="nonzero"/></g></svg>